<?xml version="1.0" encoding="utf-8"?>
<!-- Generator: Adobe Illustrator 23.0.0, SVG Export Plug-In . SVG Version: 6.00 Build 0)  -->
<svg version="1.1" xmlns="http://www.w3.org/2000/svg" xmlns:xlink="http://www.w3.org/1999/xlink" x="0px" y="0px"
	 viewBox="0 0 1350 860" style="enable-background:new 0 0 1350 860;" xml:space="preserve">
<style type="text/css">
	.st0{fill:#1DAEEC;}
	.st1{fill:#FFFFFF;}
	.st2{font-family:'MyriadPro-Bold';}
	.st3{font-size:22.3141px;}
</style>
<g id="Citation-One_2_">
	<g id="citation-one-bg">
		<g>
			<polygon class="st0" points="1350.09,501.94 1102.12,501.94 1102.12,551.53 1213.32,551.53 1226.12,564.32 1238.92,551.53 
				1350.09,551.53 			"/>
		</g>
	</g>
	<g id="citation-one-text">
		<text transform="matrix(1.0003 0 0 1 1163.6943 534.9004)" class="st1 st2 st3">Citation One</text>
	</g>
</g>
<g id="Citation-100">
	<g id="citation-100-bg">
		<g>
			<polygon class="st0" points="1239.91,486.91 991.91,486.91 991.91,536.47 1103.1,536.47 1115.92,549.28 1128.74,536.47 
				1239.91,536.47 			"/>
		</g>
	</g>
	<g id="citation-100-text">
		<text transform="matrix(1.0003 0 0 1 1054.1865 520.3057)" class="st1 st2 st3">Citation 100</text>
	</g>
</g>
<g id="Citation-300">
	<g id="citation-300-bg_1_">
		<g>
			<polygon class="st0" points="1082.62,544.72 834.66,544.72 834.66,594.31 945.86,594.31 958.64,607.09 971.42,594.31 
				1082.62,594.31 			"/>
		</g>
	</g>
	<g id="citation-300-text_1_">
		<text transform="matrix(1.0003 0 0 1 897.8262 577.6699)" class="st1 st2 st3">Citation 300</text>
	</g>
</g>
<g id="Citation-500_2_">
	<g id="citation-500-bg">
		<g>
			<polygon class="st0" points="956,502.38 708,502.38 708,551.94 819.21,551.94 832,564.73 844.79,551.94 956,551.94 			"/>
		</g>
	</g>
	<g id="citation-500-text">
		<text transform="matrix(1.0003 0 0 1 771.1064 535.8594)" class="st1 st2 st3">Citation 500</text>
	</g>
</g>
<g id="Citation-Bar_2_">
	<g id="citation-bar-bg">
		<g>
			<polygon class="st0" points="546.27,810.56 533.48,797.86 520.69,810.56 409.47,810.56 409.47,859.84 657.5,859.84 657.5,810.56 
							"/>
		</g>
	</g>
	<g id="citation-bar-text">
		<text transform="matrix(1.0003 0 0 1 473.6138 842.9668)" class="st1 st2 st3">Citation Bar</text>
	</g>
</g>
<g id="Citation-Sub_2_">
	<g id="citation-sub-bg">
		<g>
			<polygon class="st0" points="823.66,410.62 575.62,410.62 575.62,460.25 686.86,460.25 699.64,473.03 712.42,460.25 
				823.66,460.25 			"/>
		</g>
	</g>
	<g id="citation-sub-text">
		<text transform="matrix(1.0003 0 0 1 638.4414 443.6035)" class="st1 st2 st3">Citation Sub</text>
	</g>
</g>
<g id="Citation-Tower_2_">
	<g id="citation-tower-bg">
		<g>
			<polygon class="st0" points="524.59,8.88 276.62,8.88 276.62,58.47 387.82,58.47 400.6,71.25 413.38,58.47 524.59,58.47 			"/>
		</g>
	</g>
	<g id="citation-tower-text">
		<text transform="matrix(1.0003 0 0 1 326.4492 41.8267)" class="st1 st2 st3">Citation Tower</text>
	</g>
</g>
<g id="Citation-Surround_2_">
	<g id="citation-surround-bg">
		<g>
			<polygon class="st0" points="271.62,458.62 23.59,458.62 23.59,508.22 134.8,508.22 147.6,521.02 160.4,508.22 271.62,508.22 			
				"/>
		</g>
	</g>
	<g id="citation-surround-text">
		<text transform="matrix(1.0003 0 0 1 58.457 491.5947)" class="st1 st2 st3">Citation Surround</text>
	</g>
</g>
</svg>
