<?xml version="1.0" encoding="utf-8"?>
<!-- Generator: Adobe Illustrator 23.0.0, SVG Export Plug-In . SVG Version: 6.00 Build 0)  -->
<svg version="1.1" id="Overlays_1_" xmlns="http://www.w3.org/2000/svg" xmlns:xlink="http://www.w3.org/1999/xlink" x="0px"
	 y="0px" viewBox="0 0 1350 860" style="enable-background:new 0 0 1350 860;" xml:space="preserve">
<style type="text/css">
	.st0{fill:#1DAEEC;}
</style>
<g id="Citation-One">
	<g>
		<rect x="1180" y="608" class="st0" width="90" height="134"/>
	</g>
</g>
<g id="Citation-100">
	<g>
		<rect x="1065" y="563" class="st0" width="101" height="189"/>
	</g>
</g>
<g id="Citation-300">
	<g>
		<rect x="864" y="620" class="st0" width="187" height="121"/>
	</g>
</g>
<g id="Citation-500">
	<g>
		<path class="st0" d="M723.98,582.98v139.04c0,0,90.59,0,135.75,0c0-66.74,1.44-43.59,1.44-103.76c38.42,0,72.85,0,72.85,0v-35.28
			H723.98z"/>
	</g>
</g>
<g id="Citation-Bar">
	<g>
		<rect x="207" y="741" class="st0" width="650" height="50"/>
	</g>
</g>
<g id="Citation-Sub">
	<g>
		<path class="st0" d="M818.01,487.99H585.99v212.02c0,0,107.81,0,135.77,0c0-42.65-0.46-62.34-0.46-118.48c50.9,0,96.71,0,96.71,0
			V487.99z"/>
	</g>
</g>
<g id="Citation-Tower">
	<g>
		<rect x="225" y="66" class="st0" width="351" height="626"/>
	</g>
</g>
<g id="Citation-Surround">
	<g>
		<rect x="80" y="532" class="st0" width="135" height="168"/>
	</g>
</g>
</svg>
