<svg xmlns="http://www.w3.org/2000/svg" viewBox="0 0 750 484"><style>.st0{enable-background:new}.st1{fill-rule:evenodd;clip-rule:evenodd;fill:#1daeec}.st2{fill:#fff}.st3{font-family:&apos;MyriadPro-Bold&apos;}.st4{font-size:18px}</style><g id="Citation-Bar_1_" class="st0" data-product="citation-bar"><path id="Citation-Bar" d="M312.3 435.2L302 425l-10.3 10.2H202V475h200v-39.8z" class="st1"/></g><g id="Citation-Surround_1_" class="st0" data-product="citation-surround"><path id="Citation-Surround" d="M215 228H15v40h89.7l10.3 10.3 10.3-10.3H215z" class="st1"/></g><g id="Citation-Tower_1_" class="st0" data-product="citation-tower"><path id="Citation-Tower" d="M340 12H140v40h89.7L240 62.3 250.3 52H340z" class="st1"/></g><g id="Citation-Sub_1_" class="st0" data-product="citation-sub"><path id="Citation-Sub" d="M486 203H286v40h89.7l10.3 10.3 10.3-10.3H486z" class="st1"/></g><g id="Citation-500_1_" class="st0" data-product="citation-500"><path id="Citation-500" d="M550 256H350v40h89.7l10.3 10.3 10.3-10.3H550z" class="st1"/></g><g id="Citation-300_1_" class="st0" data-product="citation-300"><path id="Citation-300" d="M608 275H408v40h89.7l10.3 10.3 10.3-10.3H608z" class="st1"/></g><g id="Citation-100_1_" class="st0" data-product="citation-100"><path id="Citation-100" d="M686 245H486v40h89.7l10.3 10.3 10.3-10.3H686z" class="st1"/></g><g id="Citation-One_1_" class="st0" data-product="citation-one"><path id="Citation-One" d="M738 271H538v40h89.7l10.3 10.3 10.3-10.3H738z" class="st1"/></g><g id="text_1_"><text id="Citation_Bar" class="st2 st3 st4" transform="translate(254.527 462.193)">Citation Bar</text><text id="Citation_Surround" class="st2 st3 st4" transform="translate(43.11 256.193)">Citation Surround</text><text id="Citation_Tower" class="st2 st3 st4" transform="translate(181.007 40.193)">Citation Tower</text><text id="Citation_Sub" class="st2 st3 st4" transform="translate(336.646 231.193)">Citation Sub</text><text id="Citation_500" class="st2 st3 st4" transform="translate(458.15 303.193)">Citation 500</text><text id="Citation_300" class="st2 st3 st4" transform="translate(400.15 284.193)">Citation 300</text><text id="Citation_100" class="st2 st3 st4" transform="translate(536.15 273.193)">Citation 100</text><text id="Citation_One" class="st2 st3 st4" transform="translate(587.656 299.193)">Citation One</text></g></svg>